/* XPM */
static char *list-med.png[] = {
/* columns rows colors chars-per-pixel */
"24 24 46 1",
"  c black",
". c #001D29",
"X c #001D2A",
"o c #003953",
"O c #013D58",
"+ c #0F5981",
"@ c #598BA6",
"# c #5D9BBA",
"$ c #609AB7",
"% c #9D8E76",
"& c #A7977D",
"* c #AA997F",
"= c #AD987A",
"- c #AB9B83",
"; c #AF9E83",
": c #B0A087",
"> c #B9A78A",
", c #BAA98F",
"< c #BBD4E0",
"1 c #CFB691",
"2 c #D5BB95",
"3 c #D7BD97",
"4 c #D1BC9C",
"5 c #DFC49C",
"6 c #D3C3A7",
"7 c #D9C4A2",
"8 c #DAC5A4",
"9 c #DBC7A8",
"0 c #DCC8A9",
"q c #DCCAAE",
"w c #DDCDB3",
"e c #DED1B9",
"r c #E1C69E",
"t c #E1CBA8",
"y c #E3CDAA",
"u c #E5D0B0",
"i c #E4D2B4",
"p c #E6D4B6",
"a c #E5D5BA",
"s c #E7D7BC",
"d c gray80",
"f c #CFD8DD",
"g c #C2D9E5",
"h c #E7D9C0",
"j c #E9DBC2",
"k c gray100",
/* pixels */
"dddddddddddddddddddddddd",
"dddddddddddddddddddddddd",
"dddddddddddddddddddddddd",
"dddddddddddddddddddddddd",
"dddddddddddddddddddddddd",
"ddddjjheehjjjjjjjjjjjddd",
"ddddssg$wasssssssssssddd",
"ddddp<f@O6ipkkkkkk qiddd",
"ddddu#@+X:9 kkkkkk-,0ddd",
"ddddy7oX%;78>*&&&&;4tddd",
"ddddr51==15532222235rddd",
"dddddddddddddddddddddddd",
"ddddjjheehjjjjjjjjjjjddd",
"ddddssg$wasssssssssssddd",
"ddddp<f@O6ipkkkkkk qiddd",
"ddddu#@+X:9 kkkkkk-,0ddd",
"ddddy7oX%;78>*&&&&;4tddd",
"ddddr51==15532222235rddd",
"dddddddddddddddddddddddd",
"dddddddddddddddddddddddd",
"dddddddddddddddddddddddd",
"dddddddddddddddddddddddd",
"dddddddddddddddddddddddd",
"dddddddddddddddddddddddd"
};
